<?xml version="1.0" encoding="utf-8"?>
<!-- Generator: Adobe Illustrator 25.0.1, SVG Export Plug-In . SVG Version: 6.00 Build 0)  -->
<svg version="1.1" id="Layer_1" xmlns="http://www.w3.org/2000/svg" xmlns:xlink="http://www.w3.org/1999/xlink" x="0px" y="0px"
	 viewBox="0 0 152.1 141.7" style="enable-background:new 0 0 152.1 141.7;" xml:space="preserve">
<style type="text/css">
	.st0{fill:#FFEF41;}
	.st1{fill:none;stroke:#231F20;stroke-width:2;stroke-linecap:round;stroke-linejoin:round;stroke-miterlimit:10;}
</style>
<g>
	<path id="XMLID_68_" class="st0" d="M64.5,25.7H33.3c-6,0-10.8,4.8-10.8,10.7s4.8,10.8,10.8,10.8h1c-7.1,0-12.7,5.7-12.7,12.7
		s5.7,12.7,12.7,12.7h-0.1c-6.9,0-12.6,5.7-12.6,12.6c0,6.9,5.7,12.6,12.6,12.6h15.2c-6.5,0-11.8,5.3-11.8,11.8
		c0,6.5,5.3,11.8,11.8,11.8h38c24,0,43.2-19.4,43.2-43.2v-6.1c0.1-28.5-23.1-51.9-51.8-51.9C73.3,20.3,68.3,22.4,64.5,25.7z"/>
	<path id="XMLID_67_" class="st1" d="M76.8,109.8L76.8,109.8c0,6.5-5.3,11.8-11.8,11.8H49.5c-6.5,0-11.8-5.3-11.8-11.8l0,0
		c0-6.5,5.3-11.8,11.8-11.8H65C71.4,98,76.8,103.3,76.8,109.8z"/>
	<path class="st0" d="M78.9,20.3c1.4,0,2.8,0,4,0.1v0.1c-3.9,0.6-7.5,2.4-10.7,5c-4.6,3.9-7.3,9.7-7.3,16.2v51.8
		c0,1.7,1.1,3.3,2.6,3.9c-1.1,0.3-2.2,0.4-3.5,0.4h-2.6c-2.4,0-4.2-1.8-4.2-4.2V42.1c0-6.4,2.8-12.3,7.3-16.2
		C68.5,22.3,73.5,20.3,78.9,20.3z"/>
	<path id="XMLID_66_" class="st1" d="M78.9,20.3c-11.9,0-21.6,9.6-21.6,21.6v51.8c0,2.4,1.8,4.2,4.2,4.2H64
		c10.4,0,18.7-8.3,18.7-18.7V53.6"/>
	<line id="XMLID_65_" class="st1" x1="34.3" y1="72.7" x2="57.3" y2="72.7"/>
	<path id="XMLID_64_" class="st1" d="M64.5,25.7H33.3c-6,0-10.8,4.8-10.8,10.7s4.8,10.8,10.8,10.8h1c-7.1,0-12.7,5.7-12.7,12.7
		s5.7,12.7,12.7,12.7h-0.1c-6.9,0-12.6,5.7-12.6,12.6c0,6.9,5.7,12.6,12.6,12.6h15.2c-6.5,0-11.8,5.3-11.8,11.8
		c0,6.5,5.3,11.8,11.8,11.8h38c24,0,43.2-19.4,43.2-43.2v-6.1c0.1-28.5-23.1-51.9-51.8-51.9C73.3,20.3,68.3,22.4,64.5,25.7z"/>
	<line id="XMLID_63_" class="st1" x1="34.3" y1="47.3" x2="57.3" y2="47.3"/>
	<path id="XMLID_62_" class="st1" d="M82.7,53.8L82.7,53.8c0,11.5,9.4,20.8,20.8,20.8h6.2"/>
</g>
</svg>
