<?xml version="1.0" encoding="utf-8"?>
<!-- Generator: Adobe Illustrator 25.0.1, SVG Export Plug-In . SVG Version: 6.00 Build 0)  -->
<svg version="1.1" id="Layer_1" xmlns="http://www.w3.org/2000/svg" xmlns:xlink="http://www.w3.org/1999/xlink" x="0px" y="0px"
	 viewBox="0 0 342.9 286.1" style="enable-background:new 0 0 342.9 286.1;" xml:space="preserve">
<style type="text/css">
	.st0{fill:#FFEF41;}
	.st1{fill:none;stroke:#231F20;stroke-width:3.5;stroke-linecap:round;stroke-linejoin:round;}
	.st2{fill:none;stroke:#231F20;stroke-width:3;stroke-linecap:round;stroke-linejoin:round;}
</style>
<g>
	<path class="st0" d="M13.1,57.5c-1.9,13.4,7,25.8,19.5,27.6l0,0l125.3,19.6L33.1,124.1c-12.5,2-21.3,14.4-19.5,27.8
		s13.2,22.9,25.8,20.9l0,0l94.7-14.2c-8.8,10.9-7.7,27.3,2.6,36.8c4.4,4,10,6.2,15.8,6.2h22c-13.5,0-24.4,11.7-24.4,26.1
		s10.9,26.1,24.4,26.1h66.1c48.7,0,91.2-39.3,94.2-91.2C338,109.2,300.2,58.3,241,58.3c-78.2,0-52,0-202.1-21.6
		C26.6,34.9,15,44.1,13.1,57.5L13.1,57.5z"/>
	<path class="st0" d="M174.6,201.6h16.7c-13.5,0-24.4,11.7-24.4,26.1s10.9,26.1,24.4,26.1l0,0h-16.7c-13.5,0-24.4-11.7-24.4-26.1
		S160.9,201.6,174.6,201.6C174.4,201.6,174.6,201.6,174.6,201.6z"/>
	<path class="st0" d="M152.6,149.4h16.7c-13.5,0.2-24.1,12.2-23.9,26.6c0.2,14.2,10.9,25.3,23.9,25.6h-16.7
		c-13.5-0.2-24.1-12.2-23.9-26.6C128.7,161.1,139.4,149.7,152.6,149.4z"/>
	<path class="st0" d="M241,58.3v3.2c-18.6,7.5-30.6,26.3-30.6,47.5v79.3c0,5,2.3,9.4,6.5,11.7c-3.5,1.2-7,1.7-10.7,1.7
		c-7,0-12.5-6-12.5-13.4v-79C193.7,81.1,214.8,58.3,241,58.3L241,58.3z"/>
	<path class="st1" d="M241,124.6L241,124.6c0,24.1,18.3,43.5,40.6,43.5h12.1"/>
	<path class="st1" d="M150.3,227.7L150.3,227.7c0,14.4,10.9,26.1,24.4,26.1l0,0h29.7c13.5,0,24.4-11.7,24.4-26.1l0,0l0,0
		c0-14.4-10.9-26.1-24.4-26.1l0,0h-29.7C161.2,201.6,150.3,213.3,150.3,227.7L150.3,227.7z"/>
	<path class="st1" d="M192.7,149.4h-40.1c-13.5,0-24.4,11.7-24.4,26.1l0,0l0,0c0,14.4,10.9,26.1,24.4,26.1l0,0h51.7"/>
	<path class="st1" d="M241,58.3L241,58.3c-26.2,0-47.6,22.9-47.6,50.9v79.3c0,7.5,5.6,13.4,12.5,13.4l0,0
		c19.3,0,34.8-16.6,34.8-37.3l0,0v-40"/>
	<path class="st2" d="M13.1,57.5c-1.9,13.4,7,25.8,19.5,27.6l0,0l125.3,19.6L33.1,124.1c-12.5,2-21.3,14.4-19.5,27.8
		s13.2,22.9,25.8,20.9l0,0l94.7-14.2c-8.8,10.9-7.7,27.3,2.6,36.8c4.4,4,10,6.2,15.8,6.2h22c-13.5,0-24.4,11.7-24.4,26.1
		s10.9,26.1,24.4,26.1h66.1c48.7,0,91.2-39.3,94.2-91.2C338,109.2,300.2,58.3,241,58.3c-78.2,0-52,0-202.1-21.6
		C26.6,34.9,15,44.1,13.1,57.5L13.1,57.5z"/>
</g>
</svg>
