<?xml version="1.0" encoding="utf-8"?>
<!-- Generator: Adobe Illustrator 25.0.1, SVG Export Plug-In . SVG Version: 6.00 Build 0)  -->
<svg version="1.1" id="Layer_1" xmlns="http://www.w3.org/2000/svg" xmlns:xlink="http://www.w3.org/1999/xlink" x="0px" y="0px"
	 viewBox="0 0 123.7 101.4" style="enable-background:new 0 0 123.7 101.4;" xml:space="preserve">
<style type="text/css">
	.st0{display:none;}
	.st1{display:inline;fill:#FFEF41;}
	.st2{display:inline;fill:none;stroke:#231F20;stroke-width:2;stroke-linecap:round;stroke-linejoin:round;stroke-miterlimit:10;}
	.st3{fill:#FFEF41;}
	.st4{fill:none;stroke:#231F20;stroke-width:2;stroke-linecap:round;stroke-linejoin:round;}
</style>
<g class="st0">
	<path id="XMLID_68_" class="st1" d="M64.3,46.3h25.3c4.8,0,8.8,3.9,8.8,8.8c0,4.8-3.9,8.8-8.8,8.8h-0.8c5.7,0,10.3,4.6,10.3,10.3
		s-4.6,10.3-10.3,10.3h0.1c5.6,0,10.2,4.6,10.2,10.2c0,5.6-4.6,10.2-10.2,10.2H76.5c5.3,0,9.6,4.3,9.6,9.6c0,5.3-4.3,9.6-9.6,9.6
		H45.7c-19.4,0-35.1-15.8-35.1-35.2V84c0-23.3,18.9-42.2,42.2-42.2C57.2,41.9,61.2,43.6,64.3,46.3z"/>
	<path id="XMLID_67_" class="st2" d="M54.4,114.5L54.4,114.5c0,5.3,4.3,9.6,9.6,9.6h12.6c5.3,0,9.6-4.3,9.6-9.6l0,0
		c0-5.3-4.3-9.6-9.6-9.6H64C58.7,104.9,54.4,109.2,54.4,114.5z"/>
	<path class="st1" d="M52.7,41.9c-1.1,0-2.2,0-3.3,0.1v0.1c3.2,0.5,6.1,1.9,8.6,4.1c3.7,3.2,6,7.9,6,13.2v42c0,1.4-0.9,2.7-2.1,3.2
		c0.9,0.2,1.8,0.3,2.8,0.3h2.1c1.9,0,3.4-1.5,3.4-3.4v-42c0-5.2-2.3-10-6-13.2C61.1,43.4,57,41.9,52.7,41.9z"/>
	<path id="XMLID_66_" class="st2" d="M52.7,41.9c9.7,0,17.5,7.8,17.5,17.5v42c0,1.9-1.5,3.4-3.4,3.4h-2.1c-8.4,0-15.2-6.8-15.2-15.2
		V68.8"/>
	<line id="XMLID_65_" class="st2" x1="88.8" y1="84.4" x2="70.3" y2="84.4"/>
	<path id="XMLID_64_" class="st2" d="M64.3,46.3h25.3c4.8,0,8.8,3.9,8.8,8.8c0,4.8-3.9,8.8-8.8,8.8h-0.8c5.7,0,10.3,4.6,10.3,10.3
		s-4.6,10.3-10.3,10.3h0.1c5.6,0,10.2,4.6,10.2,10.2c0,5.6-4.6,10.2-10.2,10.2H76.5c5.3,0,9.6,4.3,9.6,9.6c0,5.3-4.3,9.6-9.6,9.6
		H45.7c-19.4,0-35.1-15.8-35.1-35.2V84c0-23.3,18.9-42.2,42.2-42.2C57.2,41.9,61.2,43.6,64.3,46.3z"/>
	<line id="XMLID_63_" class="st2" x1="88.8" y1="63.8" x2="70.3" y2="63.8"/>
	<path id="XMLID_62_" class="st2" d="M49.5,69.1L49.5,69.1c0,9.3-7.6,16.9-16.9,16.9h-5"/>
</g>
<path class="st3" d="M69.7,23.4l6.6,7H19.8c-4.9,0-9.3,3.6-9.3,8.9c0,4.9,4,8.9,8.9,8.9h0h-8c-5.1,0-10,3.8-10,9.5
	c0,5.2,4.2,9.5,9.5,9.5h-0.6c-4.8,0-8.9,3.6-8.9,8.9c0,4.9,4,8.9,8.9,8.9c0,0,0,0,0,0h15c-4.3,0-7.8,3.5-7.8,7.8
	c0,4.7,3.8,7.8,8.1,7.8h63.8c18.2,0,33.2-14.7,33.2-32.9c0-14.6-6.2-28.5-17-38.3L76.8,2.8C74.9,1,71.9,1.1,70,2.9l0,0
	C64.4,8.6,64.3,17.6,69.7,23.4z"/>
<line class="st4" x1="25.2" y1="84.6" x2="55.6" y2="84.6"/>
<line class="st4" x1="10.8" y1="66.9" x2="55.6" y2="66.9"/>
<line class="st4" x1="19.4" y1="47.9" x2="55.6" y2="47.9"/>
<path class="st4" d="M76.3,30.2v18c0,6.2,2.7,12.1,7.4,16.2"/>
<path class="st4" d="M69.7,23.2l6.6,7H19.8c-4.9,0-9.3,3.6-9.3,8.9c0,4.9,4,8.9,8.9,8.9c0,0,0,0,0,0h-8c-5.1,0-10,3.8-10,9.5
	c0,5.2,4.2,9.5,9.5,9.5h-0.6c-4.8,0-8.9,3.6-8.9,8.9c0,4.9,4,8.9,8.9,8.9c0,0,0,0,0,0h15c-4.3,0-7.8,3.5-7.8,7.8
	c0,4.7,3.8,7.8,8.1,7.8h63.8c18.2,0,33.2-14.7,33.2-32.9c0-17.8-6.2-28.5-17-38.3L76.8,2.6c-1.9-1.8-4.9-1.7-6.8,0.1l0,0
	C64.4,8.3,64.3,17.4,69.7,23.2z"/>
</svg>
