<?xml version="1.0" encoding="utf-8"?>
<!-- Generator: Adobe Illustrator 25.0.1, SVG Export Plug-In . SVG Version: 6.00 Build 0)  -->
<svg version="1.1" id="Layer_1" xmlns="http://www.w3.org/2000/svg" xmlns:xlink="http://www.w3.org/1999/xlink" x="0px" y="0px"
	 viewBox="0 0 152.1 141.7" style="enable-background:new 0 0 152.1 141.7;" xml:space="preserve">
<style type="text/css">
	.st0{display:none;}
	.st1{display:inline;fill:#FFEF41;}
	.st2{display:inline;fill:none;stroke:#231F20;stroke-width:2;stroke-linecap:round;stroke-linejoin:round;stroke-miterlimit:10;}
	.st3{fill:#FFEF41;}
	.st4{fill:none;stroke:#231F20;stroke-width:2;stroke-linecap:round;stroke-linejoin:round;}
</style>
<g class="st0">
	<path id="XMLID_68_" class="st1" d="M78.5,66.5h25.3c4.8,0,8.8,3.9,8.8,8.8c0,4.8-3.9,8.8-8.8,8.8H103c5.7,0,10.3,4.6,10.3,10.3
		s-4.6,10.3-10.3,10.3h0.1c5.6,0,10.2,4.6,10.2,10.2s-4.6,10.2-10.2,10.2H90.7c5.3,0,9.6,4.3,9.6,9.6c0,5.3-4.3,9.6-9.6,9.6H59.9
		c-19.4,0-35.1-15.8-35.1-35.2v-4.9C24.8,80.9,43.7,62,67,62C71.4,62.1,75.4,63.8,78.5,66.5z"/>
	<path id="XMLID_67_" class="st2" d="M68.6,134.7L68.6,134.7c0,5.3,4.3,9.6,9.6,9.6h12.6c5.3,0,9.6-4.3,9.6-9.6l0,0
		c0-5.3-4.3-9.6-9.6-9.6H78.2C72.9,125.1,68.6,129.4,68.6,134.7z"/>
	<path class="st1" d="M66.9,62.1c-1.1,0-2.2,0-3.3,0.1v0.1c3.2,0.5,6.1,1.9,8.6,4.1c3.7,3.2,6,7.9,6,13.2v42c0,1.4-0.9,2.7-2.1,3.2
		c0.9,0.2,1.8,0.3,2.8,0.3H81c1.9,0,3.4-1.5,3.4-3.4v-42c0-5.2-2.3-10-6-13.2C75.3,63.6,71.2,62.1,66.9,62.1z"/>
	<path id="XMLID_66_" class="st2" d="M66.9,62.1c9.7,0,17.5,7.8,17.5,17.5v42c0,1.9-1.5,3.4-3.4,3.4h-2.1c-8.4,0-15.2-6.8-15.2-15.2
		V89"/>
	<line id="XMLID_65_" class="st2" x1="103" y1="104.6" x2="84.5" y2="104.6"/>
	<path id="XMLID_64_" class="st2" d="M78.5,66.5h25.3c4.8,0,8.8,3.9,8.8,8.8c0,4.8-3.9,8.8-8.8,8.8H103c5.7,0,10.3,4.6,10.3,10.3
		s-4.6,10.3-10.3,10.3h0.1c5.6,0,10.2,4.6,10.2,10.2s-4.6,10.2-10.2,10.2H90.7c5.3,0,9.6,4.3,9.6,9.6c0,5.3-4.3,9.6-9.6,9.6H59.9
		c-19.4,0-35.1-15.8-35.1-35.2v-4.9C24.8,80.9,43.7,62,67,62C71.4,62.1,75.4,63.8,78.5,66.5z"/>
	<line id="XMLID_63_" class="st2" x1="103" y1="84" x2="84.5" y2="84"/>
	<path id="XMLID_62_" class="st2" d="M63.7,89.3L63.7,89.3c0,9.3-7.6,16.9-16.9,16.9h-5"/>
</g>
<g>
	<path class="st3" d="M87.2,36.6l7.8,8.2H28.6c-5.8,0-10.9,4.2-10.9,10.5c0,5.8,4.7,10.5,10.5,10.5l0,0h-9.4
		c-6,0-11.8,4.5-11.8,11.2c0,6.1,4.9,11.2,11.2,11.2h-0.7c-5.6,0-10.5,4.2-10.5,10.5c0,5.8,4.7,10.5,10.5,10.5l0,0H35
		c-5.1,0-9.2,4.1-9.2,9.2c0,5.5,4.5,9.2,9.5,9.2h75c21.4,0,39-17.3,39-38.7c0-17.2-7.3-33.5-20-45L95.6,12.3c-2.2-2.1-5.8-2-8,0.1
		l0,0C81,19.2,80.9,29.7,87.2,36.6z"/>
	<line class="st4" x1="34.9" y1="108.5" x2="70.7" y2="108.5"/>
	<line class="st4" x1="18" y1="87.7" x2="70.7" y2="87.7"/>
	<line class="st4" x1="28.1" y1="65.4" x2="70.7" y2="65.4"/>
	<path class="st4" d="M95,44.6v21.2c0,7.3,3.2,14.2,8.7,19"/>
	<path class="st4" d="M87.2,36.3l7.8,8.2H28.6c-5.8,0-10.9,4.2-10.9,10.5c0,5.8,4.7,10.5,10.5,10.5l0,0h-9.4
		c-6,0-11.8,4.5-11.8,11.2c0,6.1,4.9,11.2,11.2,11.2h-0.7c-5.6,0-10.5,4.2-10.5,10.5c0,5.8,4.7,10.5,10.5,10.5l0,0H35
		c-5.1,0-9.2,4.1-9.2,9.2c0,5.5,4.5,9.2,9.5,9.2h75c21.4,0,39-17.3,39-38.7c0-20.9-7.3-33.5-20-45L95.6,12.1c-2.2-2.1-5.8-2-8,0.1
		l0,0C81,18.8,80.9,29.5,87.2,36.3z"/>
</g>
</svg>
