<?xml version="1.0" encoding="utf-8"?>
<!-- Generator: Adobe Illustrator 25.0.1, SVG Export Plug-In . SVG Version: 6.00 Build 0)  -->
<svg version="1.1" id="Layer_1" xmlns="http://www.w3.org/2000/svg" xmlns:xlink="http://www.w3.org/1999/xlink" x="0px" y="0px"
	 viewBox="0 0 141.5 90.5" style="enable-background:new 0 0 141.5 90.5;" xml:space="preserve">
<style type="text/css">
	.st0{display:none;}
	.st1{display:inline;fill:#FFEF41;}
	.st2{display:inline;fill:none;stroke:#231F20;stroke-width:2;stroke-linecap:round;stroke-linejoin:round;stroke-miterlimit:10;}
	.st3{fill:#FFEF41;}
	.st4{fill:none;stroke:#231F20;stroke-width:2;stroke-linecap:round;stroke-linejoin:round;}
</style>
<g class="st0">
	<path id="XMLID_68_" class="st1" d="M81.7,35.1H107c4.8,0,8.8,3.9,8.8,8.8c0,4.8-3.9,8.8-8.8,8.8h-0.8c5.7,0,10.3,4.6,10.3,10.3
		s-4.6,10.3-10.3,10.3h0.1c5.6,0,10.2,4.6,10.2,10.2c0,5.6-4.6,10.2-10.2,10.2H93.9c5.3,0,9.6,4.3,9.6,9.6c0,5.3-4.3,9.6-9.6,9.6
		H63.1C43.7,112.9,28,97.1,28,77.7v-4.9c0-23.3,18.9-42.2,42.2-42.2C74.6,30.7,78.6,32.4,81.7,35.1z"/>
	<path id="XMLID_67_" class="st2" d="M71.8,103.3L71.8,103.3c0,5.3,4.3,9.6,9.6,9.6H94c5.3,0,9.6-4.3,9.6-9.6l0,0
		c0-5.3-4.3-9.6-9.6-9.6H81.4C76.1,93.7,71.8,98,71.8,103.3z"/>
	<path class="st1" d="M70.1,30.7c-1.1,0-2.2,0-3.3,0.1v0.1c3.2,0.5,6.1,1.9,8.6,4.1c3.7,3.2,6,7.9,6,13.2v42c0,1.4-0.9,2.7-2.1,3.2
		c0.9,0.2,1.8,0.3,2.8,0.3h2.1c1.9,0,3.4-1.5,3.4-3.4v-42c0-5.2-2.3-10-6-13.2C78.5,32.2,74.4,30.7,70.1,30.7z"/>
	<path id="XMLID_66_" class="st2" d="M70.1,30.7c9.7,0,17.5,7.8,17.5,17.5v42c0,1.9-1.5,3.4-3.4,3.4h-2.1c-8.4,0-15.2-6.8-15.2-15.2
		V57.6"/>
	<line id="XMLID_65_" class="st2" x1="106.2" y1="73.2" x2="87.7" y2="73.2"/>
	<path id="XMLID_64_" class="st2" d="M81.7,35.1H107c4.8,0,8.8,3.9,8.8,8.8c0,4.8-3.9,8.8-8.8,8.8h-0.8c5.7,0,10.3,4.6,10.3,10.3
		s-4.6,10.3-10.3,10.3h0.1c5.6,0,10.2,4.6,10.2,10.2c0,5.6-4.6,10.2-10.2,10.2H93.9c5.3,0,9.6,4.3,9.6,9.6c0,5.3-4.3,9.6-9.6,9.6
		H63.1C43.7,112.9,28,97.1,28,77.7v-4.9c0-23.3,18.9-42.2,42.2-42.2C74.6,30.7,78.6,32.4,81.7,35.1z"/>
	<line id="XMLID_63_" class="st2" x1="106.2" y1="52.6" x2="87.7" y2="52.6"/>
	<path id="XMLID_62_" class="st2" d="M66.9,57.9L66.9,57.9c0,9.3-7.6,16.9-16.9,16.9h-5"/>
</g>
<g>
	<path class="st3" d="M1.7,10.4c-0.8,5.4,3,10.4,8.4,11.1c0,0,0,0,0,0l54,7.9l-53.8,7.8C4.9,38,1.1,43,1.9,48.4s5.7,9.2,11.1,8.4
		l0,0l40.8-5.7c-3.8,4.4-3.3,11,1.1,14.8c1.9,1.6,4.3,2.5,6.8,2.5h9.5c-5.8,0-10.5,4.7-10.5,10.5c0,5.8,4.7,10.5,10.5,10.5h28.5
		c21,0,39.3-15.8,40.6-36.7c1.4-21.5-14.9-42-40.4-42c-33.7,0-22.4,0-87.1-8.7C7.5,1.3,2.5,5,1.7,10.4C1.7,10.4,1.7,10.4,1.7,10.4z"
		/>
	<path class="st3" d="M71.3,68.4h7.2c-5.8,0-10.5,4.7-10.5,10.5c0,5.8,4.7,10.5,10.5,10.5c0,0,0,0,0,0h-7.2
		c-5.8,0-10.5-4.7-10.5-10.5C60.8,73.1,65.4,68.4,71.3,68.4C71.2,68.4,71.3,68.4,71.3,68.4z"/>
	<path class="st3" d="M61.8,47.4H69c-5.8,0.1-10.4,4.9-10.3,10.7c0.1,5.7,4.7,10.2,10.3,10.3h-7.2c-5.8-0.1-10.4-4.9-10.3-10.7
		C51.5,52.1,56.1,47.5,61.8,47.4z"/>
	<path class="st3" d="M99.9,10.7v1.3c-8,3-13.2,10.6-13.2,19.1v31.9c0,2,1,3.8,2.8,4.7c-1.5,0.5-3,0.7-4.6,0.7c-3,0-5.4-2.4-5.4-5.4
		V31.2C79.5,19.9,88.6,10.7,99.9,10.7C99.9,10.7,99.9,10.7,99.9,10.7z"/>
	<path class="st4" d="M99.9,37.4L99.9,37.4c0,9.7,7.9,17.5,17.5,17.5h5.2"/>
	<path class="st4" d="M60.8,78.9L60.8,78.9c0,5.8,4.7,10.5,10.5,10.5c0,0,0,0,0,0h12.8c5.8,0,10.5-4.7,10.5-10.5l0,0l0,0
		c0-5.8-4.7-10.5-10.5-10.5c0,0,0,0,0,0H71.3C65.5,68.4,60.8,73.1,60.8,78.9L60.8,78.9z"/>
	<path class="st4" d="M79.1,47.4H61.8c-5.8,0-10.5,4.7-10.5,10.5l0,0l0,0c0,5.8,4.7,10.5,10.5,10.5c0,0,0,0,0,0h22.3"/>
	<path class="st4" d="M99.9,10.7L99.9,10.7c-11.3,0-20.5,9.2-20.5,20.5v31.9c0,3,2.4,5.4,5.4,5.4l0,0c8.3,0,15-6.7,15-15
		c0,0,0,0,0,0V37.4"/>
	<path class="st4" d="M1.7,10.4c-0.8,5.4,3,10.4,8.4,11.1c0,0,0,0,0,0l54,7.9l-53.8,7.8C4.9,38,1.1,43,1.9,48.4s5.7,9.2,11.1,8.4
		l0,0l40.8-5.7c-3.8,4.4-3.3,11,1.1,14.8c1.9,1.6,4.3,2.5,6.8,2.5h9.5c-5.8,0-10.5,4.7-10.5,10.5c0,5.8,4.7,10.5,10.5,10.5h28.5
		c21,0,39.3-15.8,40.6-36.7c1.4-21.5-14.9-42-40.4-42c-33.7,0-22.4,0-87.1-8.7C7.5,1.3,2.5,5,1.7,10.4C1.7,10.4,1.7,10.4,1.7,10.4z"
		/>
</g>
</svg>
