<?xml version="1.0" encoding="utf-8"?>
<!-- Generator: Adobe Illustrator 25.0.1, SVG Export Plug-In . SVG Version: 6.00 Build 0)  -->
<svg version="1.1" id="Layer_1" xmlns="http://www.w3.org/2000/svg" xmlns:xlink="http://www.w3.org/1999/xlink" x="0px" y="0px"
	 viewBox="0 0 91.3 85.1" style="enable-background:new 0 0 91.3 85.1;" xml:space="preserve">
<style type="text/css">
	.st0{fill:#FFEF41;}
	.st1{fill:none;stroke:#231F20;stroke-width:2;stroke-linecap:round;stroke-linejoin:round;stroke-miterlimit:10;}
</style>
<g>
	<path id="XMLID_68_" class="st0" d="M37.3,10.1H14.8c-4.3,0-7.8,3.5-7.8,7.7s3.5,7.8,7.8,7.8h0.7c-5.1,0-9.2,4.1-9.2,9.2
		s4.1,9.2,9.2,9.2h-0.1c-5,0-9.1,4.1-9.1,9.1s4.1,9.1,9.1,9.1h11c-4.7,0-8.5,3.8-8.5,8.5s3.8,8.5,8.5,8.5h27.4
		c17.3,0,31.2-14,31.2-31.2v-4.4C85.1,23,68.3,6.1,47.6,6.1C43.7,6.2,40.1,7.7,37.3,10.1z"/>
	<path id="XMLID_67_" class="st1" d="M46.2,70.8L46.2,70.8c0,4.7-3.8,8.5-8.5,8.5H26.5c-4.7,0-8.5-3.8-8.5-8.5l0,0
		c0-4.7,3.8-8.5,8.5-8.5h11.2C42.3,62.3,46.2,66.1,46.2,70.8z"/>
	<path class="st0" d="M47.7,6.2c1,0,2,0,2.9,0.1v0.1c-2.8,0.4-5.4,1.7-7.7,3.6c-3.3,2.8-5.3,7-5.3,11.7v37.4c0,1.2,0.8,2.4,1.9,2.8
		c-0.8,0.2-1.6,0.3-2.5,0.3h-1.9c-1.7,0-3-1.3-3-3V21.9c0-4.6,2-8.9,5.3-11.7C40.2,7.6,43.8,6.2,47.7,6.2z"/>
	<path id="XMLID_66_" class="st1" d="M47.7,6.2c-8.6,0-15.6,6.9-15.6,15.6v37.4c0,1.7,1.3,3,3,3H37c7.5,0,13.5-6,13.5-13.5V30.2"/>
	<line id="XMLID_65_" class="st1" x1="15.5" y1="44" x2="32.1" y2="44"/>
	<path id="XMLID_64_" class="st1" d="M37.3,10.1H14.8c-4.3,0-7.8,3.5-7.8,7.7s3.5,7.8,7.8,7.8h0.7c-5.1,0-9.2,4.1-9.2,9.2
		s4.1,9.2,9.2,9.2h-0.1c-5,0-9.1,4.1-9.1,9.1s4.1,9.1,9.1,9.1h11c-4.7,0-8.5,3.8-8.5,8.5s3.8,8.5,8.5,8.5h27.4
		c17.3,0,31.2-14,31.2-31.2v-4.4C85.1,23,68.3,6.1,47.6,6.1C43.7,6.2,40.1,7.7,37.3,10.1z"/>
	<line id="XMLID_63_" class="st1" x1="15.5" y1="25.7" x2="32.1" y2="25.7"/>
	<path id="XMLID_62_" class="st1" d="M50.5,30.4L50.5,30.4c0,8.3,6.8,15,15,15H70"/>
</g>
</svg>
