<?xml version="1.0" encoding="utf-8"?>
<!-- Generator: Adobe Illustrator 25.0.1, SVG Export Plug-In . SVG Version: 6.00 Build 0)  -->
<svg version="1.1" id="Layer_1" xmlns="http://www.w3.org/2000/svg" xmlns:xlink="http://www.w3.org/1999/xlink" x="0px" y="0px"
	 viewBox="0 0 152.1 141.7" style="enable-background:new 0 0 152.1 141.7;" xml:space="preserve">
<style type="text/css">
	.st0{fill:#FFEF41;}
	.st1{fill:none;stroke:#231F20;stroke-width:2;stroke-linecap:round;stroke-linejoin:round;stroke-miterlimit:10;}
</style>
<g>
	<path id="XMLID_68_" class="st0" d="M73.3,20.2c-28.7,0-51.9,23.4-51.8,51.9v6.1c0,23.8,19.3,43.2,43.2,43.2h38
		c6.5,0,11.8-5.3,11.8-11.8c0-6.5-5.3-11.8-11.8-11.8h15.2c6.9,0,12.6-5.7,12.6-12.6c0-6.9-5.7-12.6-12.6-12.6h-0.1
		c7.1,0,12.7-5.7,12.7-12.7s-5.7-12.7-12.7-12.7h1c6,0,10.8-5,10.8-10.8s-4.8-10.7-10.8-10.7H87.6C83.7,22.4,78.7,20.3,73.3,20.2z"
		/>
	<path id="XMLID_67_" class="st1" d="M87,98h15.5c6.5,0,11.8,5.3,11.8,11.8l0,0c0,6.5-5.3,11.8-11.8,11.8H87
		c-6.5,0-11.8-5.3-11.8-11.8l0,0C75.3,103.3,80.7,98,87,98z"/>
	<path class="st0" d="M87.5,25.9c4.6,3.9,7.3,9.8,7.3,16.2v51.7c0,2.4-1.8,4.2-4.2,4.2H88c-1.2,0-2.4-0.1-3.5-0.4
		c1.5-0.6,2.6-2.2,2.6-3.9V41.8c0-6.5-2.8-12.3-7.3-16.2c-3.2-2.6-6.8-4.4-10.7-5v-0.1c1.2-0.1,2.6-0.1,4-0.1
		C78.6,20.3,83.6,22.3,87.5,25.9z"/>
	<path id="XMLID_66_" class="st1" d="M69.3,53.6v25.6c0,10.4,8.3,18.7,18.7,18.7h2.6c2.4,0,4.2-1.8,4.2-4.2V41.9
		c0-12-9.7-21.6-21.6-21.6"/>
	<line id="XMLID_65_" class="st1" x1="94.8" y1="72.7" x2="117.8" y2="72.7"/>
	<path id="XMLID_64_" class="st1" d="M73.3,20.2c-28.7,0-51.9,23.4-51.8,51.9v6.1c0,23.8,19.3,43.2,43.2,43.2h38
		c6.5,0,11.8-5.3,11.8-11.8c0-6.5-5.3-11.8-11.8-11.8h15.2c6.9,0,12.6-5.7,12.6-12.6c0-6.9-5.7-12.6-12.6-12.6h-0.1
		c7.1,0,12.7-5.7,12.7-12.7s-5.7-12.7-12.7-12.7h1c6,0,10.8-5,10.8-10.8s-4.8-10.7-10.8-10.7H87.6C83.7,22.4,78.7,20.3,73.3,20.2z"
		/>
	<line id="XMLID_63_" class="st1" x1="94.8" y1="47.3" x2="117.8" y2="47.3"/>
	<path id="XMLID_62_" class="st1" d="M42.3,74.6h6.2c11.4,0,20.8-9.3,20.8-20.8l0,0"/>
</g>
</svg>
