<?xml version="1.0" encoding="utf-8"?>
<!-- Generator: Adobe Illustrator 25.0.1, SVG Export Plug-In . SVG Version: 6.00 Build 0)  -->
<svg version="1.1" id="Layer_1" xmlns="http://www.w3.org/2000/svg" xmlns:xlink="http://www.w3.org/1999/xlink" x="0px" y="0px"
	 viewBox="0 0 90.7 85.1" style="enable-background:new 0 0 90.7 85.1;" xml:space="preserve">
<style type="text/css">
	.st0{fill:#FFEF41;}
	.st1{fill:none;stroke:#231F20;stroke-width:2;stroke-linecap:round;stroke-linejoin:round;stroke-miterlimit:10;}
</style>
<g>
	<path id="XMLID_68_" class="st0" d="M54.9,6.1h25.3C85,6.1,89,10,89,14.9c0,4.8-3.9,8.8-8.8,8.8h-0.8c5.7,0,10.3,4.6,10.3,10.3
		s-4.6,10.3-10.3,10.3h0.1c5.6,0,10.2,4.6,10.2,10.2s-4.6,10.2-10.2,10.2H67.1c5.3,0,9.6,4.3,9.6,9.6c0,5.3-4.3,9.6-9.6,9.6H36.3
		c-19.4,0-35.1-15.8-35.1-35.2v-4.9c0-23.3,18.9-42.2,42.2-42.2C47.8,1.7,51.8,3.4,54.9,6.1z"/>
	<path id="XMLID_67_" class="st1" d="M45,74.3L45,74.3c0,5.3,4.3,9.6,9.6,9.6h12.6c5.3,0,9.6-4.3,9.6-9.6l0,0c0-5.3-4.3-9.6-9.6-9.6
		H54.6C49.3,64.7,45,69,45,74.3z"/>
	<path class="st0" d="M43.3,1.7c-1.1,0-2.2,0-3.3,0.1v0.1c3.2,0.5,6.1,1.9,8.6,4.1c3.7,3.2,6,7.9,6,13.2v42c0,1.4-0.9,2.7-2.1,3.2
		c0.9,0.2,1.8,0.3,2.8,0.3h2.1c1.9,0,3.4-1.5,3.4-3.4v-42c0-5.2-2.3-10-6-13.2C51.7,3.2,47.6,1.7,43.3,1.7z"/>
	<path id="XMLID_66_" class="st1" d="M43.3,1.7c9.7,0,17.5,7.8,17.5,17.5v42c0,1.9-1.5,3.4-3.4,3.4h-2.1c-8.4,0-15.2-6.8-15.2-15.2
		V28.6"/>
	<line id="XMLID_65_" class="st1" x1="79.4" y1="44.2" x2="60.9" y2="44.2"/>
	<path id="XMLID_64_" class="st1" d="M54.9,6.1h25.3C85,6.1,89,10,89,14.9c0,4.8-3.9,8.8-8.8,8.8h-0.8c5.7,0,10.3,4.6,10.3,10.3
		s-4.6,10.3-10.3,10.3h0.1c5.6,0,10.2,4.6,10.2,10.2s-4.6,10.2-10.2,10.2H67.1c5.3,0,9.6,4.3,9.6,9.6c0,5.3-4.3,9.6-9.6,9.6H36.3
		c-19.4,0-35.1-15.8-35.1-35.2v-4.9c0-23.3,18.9-42.2,42.2-42.2C47.8,1.7,51.8,3.4,54.9,6.1z"/>
	<line id="XMLID_63_" class="st1" x1="79.4" y1="23.6" x2="60.9" y2="23.6"/>
	<path id="XMLID_62_" class="st1" d="M40.1,28.9L40.1,28.9c0,9.3-7.6,16.9-16.9,16.9h-5"/>
</g>
</svg>
