<?xml version="1.0" encoding="utf-8"?>
<!-- Generator: Adobe Illustrator 25.0.1, SVG Export Plug-In . SVG Version: 6.00 Build 0)  -->
<svg version="1.1" id="Layer_1" xmlns="http://www.w3.org/2000/svg" xmlns:xlink="http://www.w3.org/1999/xlink" x="0px" y="0px"
	 viewBox="0 0 342.9 286.1" style="enable-background:new 0 0 342.9 286.1;" xml:space="preserve">
<style type="text/css">
	.st0{fill:#FFEF41;}
	.st1{fill:none;stroke:#231F20;stroke-width:3.5;stroke-linecap:round;stroke-linejoin:round;}
	.st2{fill:none;stroke:#231F20;stroke-width:3;stroke-linecap:round;stroke-linejoin:round;}
</style>
<g>
	<path class="st0" d="M328.7,57.5c-1.9-13.4-13.5-22.6-25.8-20.9C152.8,58.3,179,58.3,100.8,58.3c-59.2,0-97,50.9-93.7,104.3
		c3,51.9,45.5,91.2,94.2,91.2h66.1c13.5,0,24.4-11.7,24.4-26.1s-10.9-26.1-24.4-26.1h22c5.8,0,11.4-2.2,15.8-6.2
		c10.2-9.4,11.4-25.8,2.6-36.8l94.7,14.2l0,0c12.5,2,23.9-7.5,25.8-20.9c1.9-13.4-7-25.8-19.5-27.8l-124.8-19.4l125.3-19.6l0,0
		C321.7,83.4,330.5,70.9,328.7,57.5L328.7,57.5z"/>
	<path class="st0" d="M167.2,201.6c13.7,0,24.4,11.7,24.4,26.1c0,14.4-10.9,26.1-24.4,26.1h-16.7l0,0c13.5,0,24.4-11.7,24.4-26.1
		s-10.9-26.1-24.4-26.1H167.2C167.2,201.6,167.4,201.6,167.2,201.6z"/>
	<path class="st0" d="M213.1,175c0.2,14.4-10.4,26.3-23.9,26.6h-16.7c13-0.2,23.7-11.4,23.9-25.6c0.2-14.4-10.4-26.3-23.9-26.6h16.7
		C202.5,149.7,213.1,161.1,213.1,175z"/>
	<path class="st0" d="M100.8,58.3c26.2,0,47.3,22.9,47.3,50.9v79c0,7.5-5.6,13.4-12.5,13.4c-3.7,0-7.2-0.5-10.7-1.7
		c4.2-2.2,6.5-6.7,6.5-11.7V109c0-21.1-12.1-40-30.6-47.5V58.3L100.8,58.3z"/>
	<path class="st1" d="M48.2,168.1h12.1c22.3,0,40.6-19.4,40.6-43.5l0,0"/>
	<path class="st1" d="M191.6,227.7c0-14.4-10.9-26.1-24.4-26.1h-29.7l0,0c-13.5,0-24.4,11.7-24.4,26.1l0,0l0,0
		c0,14.4,10.9,26.1,24.4,26.1h29.7l0,0C180.6,253.8,191.6,242.1,191.6,227.7L191.6,227.7L191.6,227.7z"/>
	<path class="st1" d="M137.5,201.6h51.7l0,0c13.5,0,24.4-11.7,24.4-26.1l0,0l0,0c0-14.4-10.9-26.1-24.4-26.1h-40.1"/>
	<path class="st1" d="M101.1,124.6v40l0,0c0,20.6,15.5,37.3,34.8,37.3l0,0c7,0,12.5-6,12.5-13.4v-79.3c0-28.1-21.3-50.9-47.6-50.9
		l0,0"/>
	<path class="st2" d="M328.7,57.5c-1.9-13.4-13.5-22.6-25.8-20.9C152.8,58.3,179,58.3,100.8,58.3c-59.2,0-97,50.9-93.7,104.3
		c3,51.9,45.5,91.2,94.2,91.2h66.1c13.5,0,24.4-11.7,24.4-26.1s-10.9-26.1-24.4-26.1h22c5.8,0,11.4-2.2,15.8-6.2
		c10.2-9.4,11.4-25.8,2.6-36.8l94.7,14.2l0,0c12.5,2,23.9-7.5,25.8-20.9c1.9-13.4-7-25.8-19.5-27.8l-124.8-19.4l125.3-19.6l0,0
		C321.7,83.4,330.5,70.9,328.7,57.5L328.7,57.5z"/>
</g>
</svg>
