<?xml version="1.0" encoding="utf-8"?>
<!-- Generator: Adobe Illustrator 25.0.1, SVG Export Plug-In . SVG Version: 6.00 Build 0)  -->
<svg version="1.1" id="Layer_1" xmlns="http://www.w3.org/2000/svg" xmlns:xlink="http://www.w3.org/1999/xlink" x="0px" y="0px"
	 viewBox="0 0 91.3 85.1" style="enable-background:new 0 0 91.3 85.1;" xml:space="preserve">
<style type="text/css">
	.st0{fill:#FFEF41;}
	.st1{fill:none;stroke:#231F20;stroke-width:2;stroke-linecap:round;stroke-linejoin:round;stroke-miterlimit:10;}
</style>
<g>
	<path id="XMLID_68_" class="st0" d="M36.3,6.1H11c-4.8,0-8.8,3.9-8.8,8.7s3.9,8.8,8.8,8.8h0.8c-5.7,0-10.3,4.6-10.3,10.3
		s4.6,10.3,10.3,10.3h-0.1c-5.6,0-10.2,4.6-10.2,10.2s4.6,10.2,10.2,10.2h12.4c-5.3,0-9.6,4.3-9.6,9.6c0,5.3,4.3,9.6,9.6,9.6h30.8
		C74.3,83.8,90,68.1,90,48.7v-4.9C90,20.5,71.1,1.6,47.8,1.6C43.4,1.7,39.4,3.4,36.3,6.1z"/>
	<path id="XMLID_67_" class="st1" d="M46.2,74.3L46.2,74.3c0,5.3-4.3,9.6-9.6,9.6H24.1c-5.3,0-9.6-4.3-9.6-9.6l0,0
		c0-5.3,4.3-9.6,9.6-9.6h12.6C41.9,64.7,46.2,69,46.2,74.3z"/>
	<path class="st0" d="M47.9,1.7c1.1,0,2.2,0,3.3,0.1v0.1C48,2.4,45.1,3.8,42.6,6c-3.7,3.2-6,7.9-6,13.2v42c0,1.4,0.9,2.7,2.1,3.2
		c-0.9,0.2-1.8,0.3-2.8,0.3h-2.1c-1.9,0-3.4-1.5-3.4-3.4v-42c0-5.2,2.3-10,6-13.2C39.5,3.2,43.6,1.7,47.9,1.7z"/>
	<path id="XMLID_66_" class="st1" d="M47.9,1.7c-9.7,0-17.5,7.8-17.5,17.5v42c0,1.9,1.5,3.4,3.4,3.4h2.1c8.4,0,15.2-6.8,15.2-15.2
		V28.6"/>
	<line id="XMLID_65_" class="st1" x1="11.8" y1="44.2" x2="30.4" y2="44.2"/>
	<path id="XMLID_64_" class="st1" d="M36.3,6.1H11c-4.8,0-8.8,3.9-8.8,8.7s3.9,8.8,8.8,8.8h0.8c-5.7,0-10.3,4.6-10.3,10.3
		s4.6,10.3,10.3,10.3h-0.1c-5.6,0-10.2,4.6-10.2,10.2s4.6,10.2,10.2,10.2h12.4c-5.3,0-9.6,4.3-9.6,9.6c0,5.3,4.3,9.6,9.6,9.6h30.8
		C74.3,83.8,90,68.1,90,48.7v-4.9C90,20.5,71.1,1.6,47.8,1.6C43.4,1.7,39.4,3.4,36.3,6.1z"/>
	<line id="XMLID_63_" class="st1" x1="11.8" y1="23.6" x2="30.4" y2="23.6"/>
	<path id="XMLID_62_" class="st1" d="M51.1,28.9L51.1,28.9c0,9.3,7.6,16.9,16.9,16.9h5"/>
</g>
</svg>
